<svg width="201" height="32" viewBox="0 0 201 32" fill="none" xmlns="http://www.w3.org/2000/svg">
<path d="M51.5541 2H6.15287L3.00001 29H62.2739L66.0573 2" stroke="#FFB325" stroke-width="4" stroke-linecap="round"/>
<path d="M66.0573 7.39999H79.9299L77.4076 23.6H63.535" stroke="#FFB325" stroke-width="4" stroke-linecap="round"/>
<path d="M87.6465 20.1714C85.9985 20.1714 84.9105 18.8754 85.2145 17.2594L86.1905 11.8674C86.4945 10.2674 88.0625 8.95543 89.6945 8.95543H95.8865C96.2385 8.95543 96.4625 9.24343 96.3985 9.57943L96.1105 11.2434C96.0465 11.5794 95.7105 11.8514 95.3585 11.8514H89.9665C89.7585 11.8514 89.5665 12.0274 89.5185 12.2354L88.6865 16.8754C88.6385 17.0834 88.7825 17.2434 88.9905 17.2434H94.3825C94.7345 17.2434 94.9585 17.5314 94.9105 17.8674L94.5905 19.5634C94.5425 19.8994 94.2065 20.1714 93.8545 20.1714H87.6465ZM107.318 10.5714L102.742 16.4274L102.63 16.6834L102.118 19.5314C102.054 19.8994 101.718 20.1714 101.35 20.1714H99.4458C99.0618 20.1714 98.8058 19.8674 98.8858 19.4994L99.3978 16.6514C99.3818 16.5554 99.3818 16.4754 99.3658 16.3794L96.9178 10.5554C96.8698 10.4114 96.8858 10.2674 96.9658 10.1394C97.0618 9.99543 97.2218 9.89943 97.3978 9.89943H99.7978C100.054 9.89943 100.246 10.0274 100.326 10.2354L101.574 13.2114C101.59 13.2434 101.622 13.2434 101.622 13.2434C101.622 13.2434 101.654 13.2434 101.654 13.2274L104.006 10.2194C104.166 10.0274 104.39 9.89943 104.63 9.89943H107.046C107.382 9.89943 107.542 10.2834 107.318 10.5714ZM116.247 9.89943C117.783 9.89943 118.823 11.1314 118.551 12.6514L118.391 13.4834C118.391 13.4994 118.391 13.5154 118.391 13.5154C118.295 14.0114 118.039 14.4754 117.655 14.8594C118.023 15.3394 118.119 15.7554 118.119 16.1394C118.103 16.4434 118.055 16.6674 117.879 17.6274C117.623 19.0354 116.263 20.1714 114.823 20.1714H107.239C106.871 20.1714 106.615 19.8674 106.679 19.4994L108.295 10.5394C108.359 10.1714 108.695 9.89943 109.063 9.89943H116.247ZM114.679 13.6914C115.239 13.6914 115.479 12.6194 114.919 12.6194H111.191C111.175 12.6194 111.159 12.6354 111.159 12.6514L110.967 13.6914C110.967 13.7074 110.967 13.7074 110.967 13.7074L114.679 13.6914ZM114.279 17.3714C114.823 17.3714 115.079 16.2834 114.503 16.2834H110.535C110.519 16.2834 110.503 16.2994 110.487 16.3154L110.295 17.3714H114.279ZM129.903 9.88343C130.159 9.88343 130.335 10.0914 130.287 10.3474L129.935 12.2354C129.903 12.4754 129.679 12.6674 129.439 12.6674H123.535C123.519 12.6674 123.503 12.6834 123.503 12.6834L123.311 13.7234H128.063C128.175 13.7234 128.287 13.7714 128.351 13.8674C128.431 13.9474 128.463 14.0594 128.431 14.1714L128.127 15.9314C128.079 16.1554 127.855 16.3474 127.615 16.3474H122.879C122.863 16.3474 122.847 16.3634 122.831 16.3794L122.671 17.3394H128.559C128.687 17.3394 128.783 17.3874 128.863 17.4674C128.927 17.5634 128.959 17.6754 128.943 17.7874L128.591 19.7714C128.543 19.9954 128.319 20.1874 128.079 20.1874H119.599C119.407 20.1874 119.247 20.1074 119.151 19.9794C119.039 19.8514 118.991 19.6914 119.023 19.4994L120.655 10.5234C120.719 10.1714 121.055 9.88343 121.423 9.88343H129.903ZM139.669 9.89943C141.221 9.89943 142.245 11.1314 141.973 12.6514L141.557 14.9394C141.381 15.9314 140.661 16.8274 139.685 17.3074C139.669 17.3234 139.653 17.3394 139.653 17.3394L140.821 19.3874C140.917 19.5474 140.917 19.7394 140.821 19.8994C140.741 20.0594 140.565 20.1394 140.389 20.1394C139.365 20.1394 139.029 20.1714 138.165 20.1714C137.621 20.1714 137.381 20.1234 137.237 19.8514L136.181 17.7394C136.149 17.6754 136.085 17.6434 136.005 17.6434H133.701C133.685 17.6434 133.669 17.6594 133.669 17.6754L133.333 19.5474C133.269 19.8994 132.933 20.1714 132.565 20.1714H130.661C130.293 20.1714 130.037 19.8674 130.101 19.4994L131.717 10.5394C131.781 10.1874 132.133 9.89943 132.485 9.89943H139.669ZM138.661 13.0034C138.677 12.8914 138.645 12.7954 138.597 12.7314C138.533 12.6514 138.437 12.6194 138.341 12.6194H134.613C134.597 12.6194 134.581 12.6354 134.581 12.6514L134.165 14.9234H137.877C138.117 14.9234 138.341 14.7314 138.389 14.5074L138.661 13.0034ZM142.799 20.1714C142.447 20.1714 142.207 19.8994 142.271 19.5634L144.079 9.56343C144.143 9.22743 144.479 8.93943 144.831 8.93943H152.335C153.967 8.93943 155.071 10.2514 154.767 11.8674L153.791 17.2594C153.503 18.8754 151.935 20.1714 150.303 20.1714H142.799ZM146.991 12.2034L146.159 16.8754C146.111 17.0834 146.255 17.2434 146.463 17.2434H150.031C150.239 17.2434 150.431 17.0834 150.479 16.8754L151.311 12.2034C151.359 12.0114 151.215 11.8354 151.007 11.8354H147.439C147.231 11.8354 147.023 12.0114 146.991 12.2034ZM165.934 9.88343C166.19 9.88343 166.366 10.0914 166.318 10.3474L165.966 12.2354C165.934 12.4754 165.71 12.6674 165.47 12.6674H159.566C159.55 12.6674 159.534 12.6834 159.534 12.6834L159.342 13.7234H164.094C164.206 13.7234 164.318 13.7714 164.382 13.8674C164.462 13.9474 164.494 14.0594 164.462 14.1714L164.158 15.9314C164.11 16.1554 163.886 16.3474 163.646 16.3474H158.91C158.894 16.3474 158.878 16.3634 158.862 16.3794L158.702 17.3394H164.59C164.718 17.3394 164.814 17.3874 164.894 17.4674C164.958 17.5634 164.99 17.6754 164.974 17.7874L164.622 19.7714C164.574 19.9954 164.35 20.1874 164.11 20.1874H155.63C155.438 20.1874 155.278 20.1074 155.182 19.9794C155.07 19.8514 155.022 19.6914 155.054 19.4994L156.686 10.5234C156.75 10.1714 157.086 9.88343 157.454 9.88343H165.934ZM177.06 9.91543C177.428 9.91543 177.684 10.2194 177.62 10.5874L177.348 12.0274C177.284 12.3954 176.948 12.6674 176.596 12.6674H170.436C170.292 12.6674 170.148 12.7954 170.132 12.9234L170.02 13.5634C170.004 13.6274 170.02 13.6754 170.052 13.7234C170.084 13.7554 170.132 13.7874 170.196 13.7874H174.74C175.492 13.7874 176.148 14.0754 176.58 14.5874C177.012 15.1154 177.172 15.8034 177.044 16.5234L176.868 17.4674C176.612 18.9714 175.14 20.1874 173.636 20.1874L166.74 20.1714C166.356 20.1714 166.1 19.8674 166.164 19.4994L166.436 17.9794C166.516 17.6274 166.852 17.3394 167.204 17.3394H173.54C173.668 17.3394 173.812 17.2274 173.844 17.0834L173.924 16.6194C173.94 16.5554 173.924 16.4914 173.892 16.4594C173.86 16.4114 173.796 16.3954 173.748 16.3954H169.188C168.452 16.3954 167.796 16.1074 167.364 15.5794C166.932 15.0674 166.772 14.3794 166.9 13.6434L167.076 12.6194C167.348 11.1314 168.804 9.91543 170.324 9.91543H177.06ZM189.706 9.89943C189.994 9.89943 190.106 10.2194 189.882 10.4274L185.098 15.0514C185.082 15.0674 185.082 15.0674 185.082 15.0834L188.186 19.6754C188.25 19.7554 188.25 19.8834 188.186 19.9954C188.122 20.1074 187.994 20.1874 187.866 20.1874H184.906C184.698 20.1874 184.522 20.1074 184.426 19.9474L182.666 17.3554L181.386 18.5714C181.338 18.6194 181.306 18.6674 181.29 18.7314L181.146 19.5474C181.082 19.8994 180.746 20.1874 180.378 20.1874H178.474C178.106 20.1874 177.85 19.8674 177.914 19.4994L179.53 10.5554C179.594 10.1874 179.93 9.91543 180.298 9.91543H182.202C182.57 9.91543 182.826 10.2194 182.762 10.5874L182.138 14.0434L186.202 10.1234C186.362 9.97943 186.554 9.89943 186.746 9.89943H189.706Z" fill="#FFB325"/>
<path d="M18.1338 3.54285L14.9809 29" stroke="#FFB325" stroke-width="4" stroke-linecap="round"/>
</svg>
